<svg width="30" height="34" viewBox="0 0 30 34" fill="none" xmlns="http://www.w3.org/2000/svg">
<path d="M2.40027 12.1181C2.43215 11.7209 2.61247 11.3502 2.90533 11.08C3.19819 10.8098 3.58209 10.6597 3.98058 10.6598H26.0194C26.4179 10.6597 26.8018 10.8098 27.0946 11.08C27.3875 11.3502 27.5678 11.7209 27.5997 12.1181L28.9898 29.427C29.0248 29.8632 28.9691 30.302 28.8263 30.7156C28.6834 31.1292 28.4565 31.5088 28.1597 31.8304C27.863 32.152 27.5028 32.4087 27.102 32.5843C26.7012 32.7599 26.2684 32.8507 25.8308 32.8508H4.1692C3.7316 32.8507 3.29877 32.7599 2.89795 32.5843C2.49713 32.4087 2.137 32.152 1.84026 31.8304C1.54351 31.5088 1.31656 31.1292 1.17369 30.7156C1.03083 30.302 0.975153 29.8632 1.01016 29.427L2.39868 12.1181H2.40027Z" stroke="black" stroke-width="2" stroke-linecap="round" stroke-linejoin="round"/>
<path d="M21.3402 15.415V7.48969C21.3402 5.80815 20.6723 4.19547 19.4832 3.00644C18.2942 1.81741 16.6815 1.14941 15 1.14941C13.3184 1.14941 11.7057 1.81741 10.5167 3.00644C9.32768 4.19547 8.65969 5.80815 8.65969 7.48969V15.415" stroke="black" stroke-width="2" stroke-linecap="round" stroke-linejoin="round"/>
</svg>
