<svg width="24" height="24" viewBox="0 0 24 24" fill="none" xmlns="http://www.w3.org/2000/svg">
<path d="M11.2929 11.2929C10.9024 11.6834 10.9024 12.3166 11.2929 12.7071L17.6569 19.0711C18.0474 19.4616 18.6805 19.4616 19.0711 19.0711C19.4616 18.6805 19.4616 18.0474 19.0711 17.6569L13.4142 12L19.0711 6.34315C19.4616 5.95262 19.4616 5.31946 19.0711 4.92893C18.6805 4.53841 18.0474 4.53841 17.6569 4.92893L11.2929 11.2929ZM13 11H12V13H13V11Z" fill="#131313"/>
<path d="M12.7071 11.2929C13.0976 11.6834 13.0976 12.3166 12.7071 12.7071L6.34315 19.0711C5.95262 19.4616 5.31946 19.4616 4.92893 19.0711C4.53841 18.6805 4.53841 18.0474 4.92893 17.6569L10.5858 12L4.92893 6.34315C4.53841 5.95262 4.53841 5.31946 4.92893 4.92893C5.31946 4.53841 5.95262 4.53841 6.34315 4.92893L12.7071 11.2929ZM11 11H12V13H11V11Z" fill="#131313"/>
</svg>
