<svg width="38" height="38" viewBox="0 0 38 38" fill="none" xmlns="http://www.w3.org/2000/svg">
<circle cx="19" cy="19" r="19" fill="#F2F2F2"/>
<path d="M18.2929 18.2929C17.9024 18.6834 17.9024 19.3166 18.2929 19.7071L24.6569 26.0711C25.0474 26.4616 25.6805 26.4616 26.0711 26.0711C26.4616 25.6805 26.4616 25.0474 26.0711 24.6569L20.4142 19L26.0711 13.3431C26.4616 12.9526 26.4616 12.3195 26.0711 11.9289C25.6805 11.5384 25.0474 11.5384 24.6569 11.9289L18.2929 18.2929ZM20 18H19V20H20V18Z" fill="#131313"/>
<path d="M19.7071 18.2929C20.0976 18.6834 20.0976 19.3166 19.7071 19.7071L13.3431 26.0711C12.9526 26.4616 12.3195 26.4616 11.9289 26.0711C11.5384 25.6805 11.5384 25.0474 11.9289 24.6569L17.5858 19L11.9289 13.3431C11.5384 12.9526 11.5384 12.3195 11.9289 11.9289C12.3195 11.5384 12.9526 11.5384 13.3431 11.9289L19.7071 18.2929ZM18 18H19V20H18V18Z" fill="#131313"/>
</svg>
