<svg width="16" height="16" viewBox="0 0 16 16" fill="none" xmlns="http://www.w3.org/2000/svg">
<path d="M7.29289 7.29289C6.90237 7.68342 6.90237 8.31658 7.29289 8.70711L13.6569 15.0711C14.0474 15.4616 14.6805 15.4616 15.0711 15.0711C15.4616 14.6805 15.4616 14.0474 15.0711 13.6569L9.41421 8L15.0711 2.34315C15.4616 1.95262 15.4616 1.31946 15.0711 0.928932C14.6805 0.538408 14.0474 0.538408 13.6569 0.928932L7.29289 7.29289ZM9 7H8V9H9V7Z" fill="#C4C4C4"/>
<path d="M8.70711 7.29289C9.09763 7.68342 9.09763 8.31658 8.70711 8.70711L2.34315 15.0711C1.95262 15.4616 1.31946 15.4616 0.928932 15.0711C0.538408 14.6805 0.538408 14.0474 0.928932 13.6569L6.58579 8L0.928932 2.34315C0.538408 1.95262 0.538408 1.31946 0.928932 0.928932C1.31946 0.538408 1.95262 0.538408 2.34315 0.928932L8.70711 7.29289ZM7 7H8V9H7V7Z" fill="#C4C4C4"/>
</svg>
