<svg width="15" height="15" viewBox="0 0 15 15" fill="none" xmlns="http://www.w3.org/2000/svg">
<path d="M7.5 13.75C4.39375 13.75 1.875 12.1363 1.875 9.37505V9.32005C1.875 7.9963 2.71125 6.93755 3.98438 6.25005C5.2025 5.59255 5.9225 4.3813 5.7425 3.12505L5.39062 1.25005L6.69438 1.74692C9.0425 2.64067 10.9981 4.19192 12.2656 6.16317C12.8229 7.01947 13.1213 8.01838 13.125 9.04005V9.37505C13.125 10.3513 12.81 11.1844 12.2656 11.8532" stroke="white" stroke-linecap="round" stroke-linejoin="round"/>
<path d="M7.5 13.75C6.46438 13.75 5.625 12.8544 5.625 11.75C5.625 10.875 6.26 10.1744 6.81875 9.53255L7.5 8.75005L8.18125 9.53255C8.74 10.175 9.375 10.875 9.375 11.75C9.375 12.8544 8.53562 13.75 7.5 13.75Z" stroke="white" stroke-linecap="round" stroke-linejoin="round"/>
</svg>
