<svg width="30" height="30" viewBox="0 0 30 30" fill="none" xmlns="http://www.w3.org/2000/svg">
<path d="M24.6505 26.4081C22.0489 28.6054 18.674 29.9999 15.0001 29.9999C9.53327 29.9999 4.73438 26.9882 2.13287 22.5937L3.10682 18.1041L7.42389 17.3027C8.42584 20.537 11.4492 22.9101 15.0001 22.9101C16.7227 22.9101 18.3223 22.3652 19.6407 21.3984L23.7891 22.0312L24.6505 26.4081Z" fill="#59C36A"/>
<path d="M24.6504 26.4083L23.7891 22.0313L19.6406 21.3985C18.3223 22.3653 16.7226 22.9102 15 22.9102V30.0001C18.6739 30.0001 22.0488 28.6055 24.6504 26.4083Z" fill="#00A66C"/>
<path d="M7.08984 14.9998C7.08984 15.8084 7.21289 16.5818 7.42383 17.3026L2.13281 22.5936C0.814453 20.3787 0 17.7771 0 14.9998C0 12.2224 0.814453 9.62091 2.13281 7.40607L6.37928 8.13691L7.42383 12.6971C7.21289 13.4177 7.08984 14.1912 7.08984 14.9998Z" fill="#FFDA2D"/>
<path d="M30 15C30 19.5703 27.8848 23.666 24.6504 26.4082L19.6406 21.3984C20.6601 20.6601 21.5215 19.6757 22.084 18.5156H15C14.5078 18.5156 14.1211 18.1288 14.1211 17.6367V12.3633C14.1211 11.871 14.5078 11.4844 15 11.4844H28.875C29.2969 11.4844 29.666 11.7831 29.7363 12.205C29.9121 13.1191 30 14.0683 30 15Z" fill="#4086F4"/>
<path d="M22.084 18.5156C21.5215 19.6757 20.6601 20.6601 19.6407 21.3984L24.6504 26.4082C27.8848 23.666 30 19.5703 30 15C30 14.0683 29.9121 13.1191 29.7363 12.205C29.666 11.7831 29.2968 11.4844 28.8749 11.4844H15V18.5156H22.084Z" fill="#4175DF"/>
<path d="M24.8965 4.18939C24.9141 4.43549 24.8087 4.66406 24.6505 4.83978L20.8887 8.58392C20.59 8.90033 20.0978 8.93549 19.7462 8.67181C18.3574 7.63476 16.7227 7.08984 15.0001 7.08984C11.4492 7.08984 8.42584 9.46283 7.42389 12.6973L2.13287 7.40625C4.73438 3.01172 9.53327 0 15.0001 0C18.4981 0 21.9083 1.28906 24.5801 3.539C24.7735 3.69727 24.879 3.9433 24.8965 4.18939Z" fill="#FF641A"/>
<path d="M19.7461 8.67182C20.0977 8.93555 20.5898 8.90033 20.8886 8.58393L24.6503 4.83979C24.8086 4.66406 24.9141 4.43555 24.8964 4.18939C24.8788 3.94324 24.7734 3.69727 24.58 3.539C21.9082 1.28906 18.498 0 15 0V7.08984C16.7226 7.08984 18.3574 7.63477 19.7461 8.67182Z" fill="#F03800"/>
</svg>
