<svg width="68" height="68" viewBox="0 0 68 68" fill="none" xmlns="http://www.w3.org/2000/svg">
<path d="M5.66663 17C5.66663 13.9942 6.86067 11.1115 8.98608 8.98612C11.1115 6.86071 13.9942 5.66666 17 5.66666H51C54.0057 5.66666 56.8884 6.86071 59.0138 8.98612C61.1392 11.1115 62.3333 13.9942 62.3333 17V51C62.3333 54.0058 61.1392 56.8885 59.0138 59.0139C56.8884 61.1393 54.0057 62.3333 51 62.3333H17C13.9942 62.3333 11.1115 61.1393 8.98608 59.0139C6.86067 56.8885 5.66663 54.0058 5.66663 51V17Z" stroke="white" stroke-width="2" stroke-linecap="round" stroke-linejoin="round"/>
<path d="M24.0833 31.1667C27.9954 31.1667 31.1667 27.9954 31.1667 24.0833C31.1667 20.1713 27.9954 17 24.0833 17C20.1713 17 17 20.1713 17 24.0833C17 27.9954 20.1713 31.1667 24.0833 31.1667Z" stroke="white" stroke-width="2" stroke-linecap="round" stroke-linejoin="round"/>
<path d="M41.157 35.7591L17 62.333H51.3768C54.2827 62.333 57.0695 61.1786 59.1243 59.1239C61.179 57.0692 62.3333 54.2823 62.3333 51.3765V50.9996C62.3333 49.6793 61.8375 49.1721 60.945 48.1946L49.5267 35.7421C48.9945 35.1616 48.3472 34.6984 47.626 34.3821C46.9048 34.0657 46.1256 33.9031 45.3381 33.9047C44.5506 33.9063 43.772 34.0721 43.0521 34.3914C42.3322 34.7106 41.6868 35.1765 41.157 35.7591V35.7591Z" stroke="white" stroke-width="2" stroke-linecap="round" stroke-linejoin="round"/>
</svg>
