<svg width="30" height="30" viewBox="0 0 30 30" fill="none" xmlns="http://www.w3.org/2000/svg">
<path d="M13.8425 3.29125C14.2425 2.23625 15.7562 2.23625 16.1575 3.29125L18.745 10.4587C18.9262 10.9337 19.3875 11.25 19.9025 11.25H26.2612C27.4362 11.25 27.9487 12.7125 27.025 13.4288L22.5 17.5C22.2973 17.6558 22.1491 17.8718 22.0768 18.1171C22.0045 18.3623 22.0117 18.6241 22.0975 18.865L23.75 25.8687C24.1525 26.9937 22.85 27.96 21.865 27.2675L15.7187 23.3675C15.5082 23.2196 15.2572 23.1402 15 23.1402C14.7427 23.1402 14.4917 23.2196 14.2812 23.3675L8.13497 27.2675C7.15122 27.96 5.84747 26.9925 6.24997 25.8687L7.90247 18.865C7.9882 18.6241 7.99542 18.3623 7.92311 18.1171C7.8508 17.8718 7.70267 17.6558 7.49997 17.5L2.97497 13.4288C2.04997 12.7125 2.56497 11.25 3.73747 11.25H10.0962C10.3466 11.2508 10.5913 11.1756 10.798 11.0343C11.0047 10.8931 11.1636 10.6923 11.2537 10.4587L13.8412 3.29125H13.8425Z" fill="#C4C4C4"/>
<path d="M13.8425 3.29125C14.2425 2.23625 15.7562 2.23625 16.1575 3.29125L18.745 10.4587C18.9262 10.9337 19.3875 11.25 19.9025 11.25H26.2612C27.4362 11.25 27.9487 12.7125 27.025 13.4288L22.5 17.5C22.2973 17.6558 22.1491 17.8718 22.0768 18.1171C22.0045 18.3623 22.0117 18.6241 22.0975 18.865L23.75 25.8687C24.1525 26.9937 22.85 27.96 21.865 27.2675L15.7187 23.3675C15.5082 23.2196 15.2572 23.1402 15 23.1402C14.7427 23.1402 14.4917 23.2196 14.2812 23.3675L8.13497 27.2675C7.15122 27.96 5.84747 26.9925 6.24997 25.8687L7.90247 18.865C7.9882 18.6241 7.99542 18.3623 7.92311 18.1171C7.8508 17.8718 7.70267 17.6558 7.49997 17.5L2.97497 13.4288C2.04997 12.7125 2.56497 11.25 3.73747 11.25H10.0962C10.3466 11.2508 10.5913 11.1756 10.798 11.0343C11.0047 10.8931 11.1636 10.6923 11.2537 10.4587L13.8412 3.29125H13.8425Z" fill="url(#paint0_linear)"/>
<defs>
<linearGradient id="paint0_linear" x1="2.49927" y1="2.5" x2="27.5125" y2="27.4883" gradientUnits="userSpaceOnUse">
<stop stop-color="#FFC700"/>
<stop offset="1" stop-color="#F5B100"/>
</linearGradient>
</defs>
</svg>
